<svg xmlns="http://www.w3.org/2000/svg" xmlns:xlink="http://www.w3.org/1999/xlink" width="500" zoomAndPan="magnify" viewBox="0 0 375 374.999991" height="500" preserveAspectRatio="xMidYMid meet" version="1.0"><defs><g/><clipPath id="id1"><path d="M 18.75 18.75 L 356.25 18.75 L 356.25 356.25 L 18.75 356.25 Z M 18.75 18.75 " clip-rule="nonzero"/></clipPath></defs><g clip-path="url(#id1)"><path fill="#ffbd59" d="M 328.207031 187.515625 C 328.207031 190.730469 328.058594 193.90625 327.847656 197.066406 L 336.800781 197.066406 C 336.367188 203.824219 335.507812 210.453125 334.207031 216.9375 L 325.566406 214.621094 C 324.339844 220.933594 322.667969 227.09375 320.617188 233.078125 L 329.234375 235.382812 C 327.078125 241.753906 324.515625 247.933594 321.554688 253.894531 L 313.855469 249.449219 C 311.035156 255.183594 307.851562 260.714844 304.304688 265.980469 L 311.992188 270.425781 C 308.269531 275.988281 304.175781 281.277344 299.765625 286.289062 L 293.484375 280.011719 C 289.292969 284.808594 284.785156 289.324219 279.980469 293.511719 L 286.257812 299.789062 C 281.25 304.203125 275.960938 308.296875 270.398438 312.015625 L 265.960938 304.332031 C 260.6875 307.882812 255.160156 311.0625 249.417969 313.878906 L 253.863281 321.578125 C 247.902344 324.539062 241.726562 327.101562 235.359375 329.265625 L 233.050781 320.648438 C 227.066406 322.695312 220.914062 324.367188 214.597656 325.597656 L 216.910156 334.234375 C 210.429688 335.535156 203.789062 336.394531 197.039062 336.820312 L 197.039062 327.878906 C 193.878906 328.089844 190.699219 328.238281 187.484375 328.238281 C 184.273438 328.238281 181.09375 328.089844 177.933594 327.878906 L 177.933594 336.820312 C 171.179688 336.394531 164.546875 335.535156 158.066406 334.234375 L 160.375 325.597656 C 154.058594 324.367188 147.90625 322.695312 141.925781 320.648438 L 139.621094 329.265625 C 133.246094 327.101562 127.066406 324.546875 121.109375 321.578125 L 125.554688 313.878906 C 119.816406 311.070312 114.28125 307.882812 109.011719 304.332031 L 104.578125 312.015625 C 99.011719 308.300781 93.726562 304.203125 88.71875 299.800781 L 94.996094 293.523438 C 90.191406 289.332031 85.679688 284.816406 81.484375 280.011719 L 75.210938 286.289062 C 70.796875 281.285156 66.703125 275.988281 62.980469 270.425781 L 70.667969 265.988281 C 67.121094 260.722656 63.933594 255.191406 61.113281 249.449219 L 53.421875 253.894531 C 50.457031 247.941406 47.898438 241.757812 45.738281 235.382812 L 54.347656 233.078125 C 52.304688 227.097656 50.632812 220.949219 49.398438 214.628906 L 40.761719 216.945312 C 39.464844 210.46875 38.601562 203.824219 38.175781 197.074219 L 47.121094 197.074219 C 46.910156 193.90625 46.761719 190.730469 46.761719 187.515625 C 46.761719 184.296875 46.910156 181.121094 47.121094 177.96875 L 38.171875 177.96875 C 38.601562 171.21875 39.464844 164.574219 40.757812 158.09375 L 49.398438 160.410156 C 50.628906 154.09375 52.296875 147.9375 54.34375 141.957031 L 45.734375 139.652344 C 47.890625 133.285156 50.453125 127.101562 53.414062 121.140625 L 61.109375 125.585938 C 63.929688 119.84375 67.113281 114.320312 70.664062 109.042969 L 62.980469 104.609375 C 66.699219 99.042969 70.789062 93.753906 75.199219 88.75 L 81.480469 95.023438 C 85.667969 90.21875 90.179688 85.703125 94.984375 81.519531 L 88.707031 75.242188 C 93.714844 70.824219 99.007812 66.730469 104.570312 63.003906 L 109.007812 70.695312 C 114.277344 67.148438 119.804688 63.964844 125.550781 61.140625 L 121.101562 53.449219 C 127.058594 50.480469 133.242188 47.917969 139.613281 45.765625 L 141.921875 54.378906 C 147.90625 52.328125 154.058594 50.660156 160.371094 49.429688 L 158.058594 40.785156 C 164.542969 39.492188 171.179688 38.632812 177.933594 38.199219 L 177.933594 47.148438 C 181.09375 46.9375 184.273438 46.789062 187.484375 46.789062 C 190.699219 46.789062 193.878906 46.9375 197.039062 47.148438 L 197.039062 38.199219 C 203.789062 38.632812 210.429688 39.492188 216.910156 40.785156 L 214.59375 49.429688 C 220.914062 50.660156 227.0625 52.328125 233.050781 54.378906 L 235.355469 45.765625 C 241.726562 47.917969 247.902344 50.480469 253.867188 53.441406 L 249.417969 61.140625 C 255.160156 63.957031 260.695312 67.148438 265.960938 70.695312 L 270.398438 63.003906 C 275.960938 66.726562 281.25 70.824219 286.261719 75.234375 L 279.984375 81.511719 C 284.789062 85.703125 289.300781 90.210938 293.488281 95.015625 L 299.769531 88.742188 C 304.179688 93.753906 308.269531 99.039062 311.992188 104.601562 L 304.304688 109.039062 C 307.851562 114.308594 311.039062 119.84375 313.855469 125.578125 L 321.554688 121.132812 C 324.515625 127.09375 327.078125 133.277344 329.234375 139.644531 L 320.617188 141.949219 C 322.667969 147.9375 324.339844 154.085938 325.566406 160.402344 L 334.207031 158.085938 C 335.507812 164.574219 336.367188 171.207031 336.800781 177.960938 L 327.847656 177.960938 C 328.058594 181.121094 328.207031 184.296875 328.207031 187.515625 Z M 187.484375 18.765625 C 94.433594 18.765625 18.734375 94.464844 18.734375 187.515625 C 18.734375 280.566406 94.433594 356.265625 187.484375 356.265625 C 280.539062 356.265625 356.234375 280.566406 356.234375 187.515625 C 356.234375 94.464844 280.539062 18.765625 187.484375 18.765625 " fill-opacity="1" fill-rule="nonzero"/></g><path fill="#ffbd59" d="M 187.484375 313.3125 C 118.117188 313.3125 61.6875 256.875 61.6875 187.515625 C 61.6875 118.148438 118.117188 61.71875 187.484375 61.71875 C 256.847656 61.71875 313.277344 118.148438 313.277344 187.515625 C 313.277344 256.875 256.847656 313.3125 187.484375 313.3125 Z M 187.484375 55.347656 C 114.609375 55.347656 55.320312 114.644531 55.320312 187.515625 C 55.320312 260.386719 114.609375 319.679688 187.484375 319.679688 C 260.355469 319.679688 319.644531 260.386719 319.644531 187.515625 C 319.644531 114.644531 260.355469 55.347656 187.484375 55.347656 " fill-opacity="1" fill-rule="nonzero"/><g fill="#ffbd59" fill-opacity="1"><g transform="translate(110.098444, 257.696686)"><g><path d="M 109.796875 0 L 102.3125 -28.515625 L 52.875 -28.515625 L 45.171875 0 L 0 0 L 49.640625 -152.796875 L 104.5 -152.796875 L 154.765625 0 Z M 93.78125 -62.234375 L 87.21875 -87.21875 C 85.6875 -92.769531 83.828125 -99.953125 81.640625 -108.765625 C 79.460938 -117.578125 78.023438 -123.890625 77.328125 -127.703125 C 76.703125 -124.160156 75.46875 -118.332031 73.625 -110.21875 C 71.789062 -102.101562 67.71875 -86.109375 61.40625 -62.234375 Z M 93.78125 -62.234375 "/></g></g></g></svg>